<svg xmlns="http://www.w3.org/2000/svg" xmlns:xlink="http://www.w3.org/1999/xlink" width="60" zoomAndPan="magnify" viewBox="0 0 45 44.999999" height="60" preserveAspectRatio="xMidYMid meet" version="1.0"><defs><g/></defs><g fill="#000000" fill-opacity="1"><g transform="translate(22.243499, 31.275996)"><g><path d="M 6.703125 -13.640625 C 7.804688 -13.640625 8.726562 -13.375 9.46875 -12.84375 C 10.457031 -12.125 10.953125 -11.007812 10.953125 -9.5 C 10.953125 -8.40625 10.644531 -7.472656 10.03125 -6.703125 C 9.375 -5.878906 8.457031 -5.46875 7.28125 -5.46875 C 6.65625 -5.46875 6.085938 -5.613281 5.578125 -5.90625 C 5.066406 -6.207031 4.769531 -6.722656 4.6875 -7.453125 L 4.859375 -7.5 C 4.992188 -6.957031 5.316406 -6.578125 5.828125 -6.359375 C 6.171875 -6.210938 6.476562 -6.140625 6.75 -6.140625 C 7.78125 -6.140625 8.535156 -6.546875 9.015625 -7.359375 C 9.347656 -7.953125 9.515625 -8.660156 9.515625 -9.484375 C 9.515625 -10.804688 9.148438 -11.757812 8.421875 -12.34375 C 7.859375 -12.800781 7.144531 -13.03125 6.28125 -13.03125 C 6.082031 -13.03125 5.910156 -13.019531 5.765625 -13 C 5.617188 -12.976562 4.976562 -12.875 3.84375 -12.6875 L 3.84375 -1.390625 C 3.851562 -1.046875 3.976562 -0.757812 4.21875 -0.53125 C 4.46875 -0.300781 4.75 -0.1875 5.0625 -0.1875 L 5.3125 -0.1875 L 5.3125 0 L 1.140625 0 L 1.140625 -0.1875 L 1.390625 -0.1875 C 1.703125 -0.1875 1.976562 -0.300781 2.21875 -0.53125 C 2.46875 -0.757812 2.597656 -1.046875 2.609375 -1.390625 L 2.609375 -11.6875 C 2.609375 -12.019531 2.507812 -12.28125 2.3125 -12.46875 C 2.125 -12.65625 1.878906 -12.75 1.578125 -12.75 C 1.515625 -12.75 1.453125 -12.738281 1.390625 -12.71875 L 1.15625 -12.703125 L 1.125 -12.890625 C 1.78125 -12.953125 2.664062 -13.078125 3.78125 -13.265625 C 4.894531 -13.453125 5.582031 -13.5625 5.84375 -13.59375 C 6.113281 -13.625 6.398438 -13.640625 6.703125 -13.640625 Z M 6.703125 -13.640625 "/></g></g></g><g fill="#000000" fill-opacity="1"><g transform="translate(11.19696, 27.225996)"><g><path d="M 22.703125 -17.984375 C 22.785156 -17.984375 22.867188 -17.984375 22.953125 -17.984375 L 22.953125 -17.796875 C 22.347656 -17.765625 21.78125 -17.617188 21.25 -17.359375 C 20.71875 -17.109375 20.265625 -16.804688 19.890625 -16.453125 C 19.523438 -16.109375 19.1875 -15.691406 18.875 -15.203125 C 18.363281 -14.410156 17.929688 -13.507812 17.578125 -12.5 L 13.921875 -1.890625 C 13.660156 -1.085938 13.519531 -0.378906 13.5 0.234375 L 13.328125 0.234375 L 9.4375 -10.640625 L 6.375 -1.046875 C 5.914062 0.390625 5.179688 1.503906 4.171875 2.296875 C 3.429688 2.898438 2.601562 3.203125 1.6875 3.203125 C 1.375 3.203125 1.039062 3.160156 0.6875 3.078125 L 0.71875 2.890625 C 0.90625 2.929688 1.125 2.953125 1.375 2.953125 C 1.625 2.953125 1.953125 2.875 2.359375 2.71875 C 2.773438 2.570312 3.1875 2.300781 3.59375 1.90625 C 4.414062 1.101562 5.050781 0.0976562 5.5 -1.109375 L 1.65625 -11.984375 C 1.5 -12.359375 1.257812 -12.644531 0.9375 -12.84375 C 0.625 -13.039062 0.304688 -13.140625 -0.015625 -13.140625 L -0.171875 -13.140625 L -0.171875 -13.328125 L 4.046875 -13.328125 L 4.046875 -13.140625 L 3.875 -13.140625 C 3.613281 -13.140625 3.414062 -13.050781 3.28125 -12.875 C 3.144531 -12.707031 3.078125 -12.546875 3.078125 -12.390625 C 3.078125 -12.242188 3.097656 -12.109375 3.140625 -11.984375 L 6.03125 -2.703125 L 9.578125 -13.640625 L 9.75 -13.625 L 13.515625 -3.0625 L 16.34375 -12.5 C 16.664062 -13.601562 17.171875 -14.597656 17.859375 -15.484375 C 19.128906 -17.148438 20.742188 -17.984375 22.703125 -17.984375 Z M 22.703125 -17.984375 "/></g></g></g><path fill="#e1e1e1" d="M 14.300781 21.539062 L 28.9375 21.539062 C 29.0625 21.539062 29.1875 21.589844 29.277344 21.679688 C 29.367188 21.769531 29.417969 21.890625 29.417969 22.019531 L 29.417969 22.980469 C 29.417969 23.109375 29.367188 23.230469 29.277344 23.320312 C 29.1875 23.410156 29.0625 23.460938 28.9375 23.460938 L 14.300781 23.460938 C 14.175781 23.460938 14.050781 23.410156 13.960938 23.320312 C 13.871094 23.230469 13.820312 23.109375 13.820312 22.980469 L 13.820312 22.019531 C 13.820312 21.890625 13.871094 21.769531 13.960938 21.679688 C 14.050781 21.589844 14.175781 21.539062 14.300781 21.539062 Z M 14.300781 21.539062 " fill-opacity="1" fill-rule="nonzero"/><g fill="#000000" fill-opacity="1"><g transform="translate(14.75973, 22.859999)"><g><path d="M 1.03125 -0.859375 L 1.1875 -0.859375 L 0.9375 0 L 0.75 0 L 0.59375 -0.65625 L 0.421875 0 L 0.234375 0 L 0.03125 -0.859375 L 0.1875 -0.859375 L 0.328125 -0.203125 L 0.515625 -0.859375 L 0.703125 -0.859375 L 0.859375 -0.203125 Z M 1.03125 -0.859375 "/></g></g></g><g fill="#000000" fill-opacity="1"><g transform="translate(16.856163, 22.859999)"><g><path d="M 0.765625 -0.15625 L 0.796875 -0.03125 C 0.785156 -0.0195312 0.765625 -0.0078125 0.734375 0 C 0.710938 0.0078125 0.691406 0.015625 0.671875 0.015625 C 0.578125 0.015625 0.503906 -0.0234375 0.453125 -0.109375 L 0.328125 -0.296875 C 0.316406 -0.316406 0.300781 -0.332031 0.28125 -0.34375 C 0.269531 -0.351562 0.257812 -0.359375 0.25 -0.359375 L 0.234375 -0.359375 L 0.234375 0 L 0.09375 0 L 0.09375 -0.859375 L 0.359375 -0.859375 C 0.460938 -0.859375 0.539062 -0.832031 0.59375 -0.78125 C 0.65625 -0.738281 0.6875 -0.675781 0.6875 -0.59375 C 0.6875 -0.550781 0.675781 -0.507812 0.65625 -0.46875 C 0.632812 -0.4375 0.601562 -0.410156 0.5625 -0.390625 C 0.53125 -0.378906 0.488281 -0.367188 0.4375 -0.359375 C 0.46875 -0.347656 0.492188 -0.328125 0.515625 -0.296875 L 0.578125 -0.1875 C 0.597656 -0.164062 0.613281 -0.148438 0.625 -0.140625 C 0.644531 -0.128906 0.664062 -0.125 0.6875 -0.125 C 0.71875 -0.125 0.742188 -0.132812 0.765625 -0.15625 Z M 0.34375 -0.734375 L 0.234375 -0.734375 L 0.234375 -0.46875 L 0.328125 -0.46875 C 0.398438 -0.46875 0.453125 -0.476562 0.484375 -0.5 C 0.515625 -0.519531 0.53125 -0.550781 0.53125 -0.59375 C 0.53125 -0.6875 0.46875 -0.734375 0.34375 -0.734375 Z M 0.34375 -0.734375 "/></g></g></g><g fill="#000000" fill-opacity="1"><g transform="translate(18.523859, 22.859999)"><g><path d="M 0.09375 0 L 0.09375 -0.859375 L 0.25 -0.859375 L 0.25 0 Z M 0.09375 0 "/></g></g></g><g fill="#000000" fill-opacity="1"><g transform="translate(19.770024, 22.859999)"><g><path d="M 0.703125 -0.859375 L 0.6875 -0.71875 L 0.421875 -0.71875 L 0.421875 0 L 0.265625 0 L 0.265625 -0.71875 L 0 -0.71875 L 0 -0.859375 Z M 0.703125 -0.859375 "/></g></g></g><g fill="#000000" fill-opacity="1"><g transform="translate(21.374069, 22.859999)"><g><path d="M 0.640625 -0.71875 L 0.234375 -0.71875 L 0.234375 -0.5 L 0.625 -0.5 L 0.625 -0.359375 L 0.234375 -0.359375 L 0.234375 -0.140625 L 0.65625 -0.140625 L 0.640625 0 L 0.09375 0 L 0.09375 -0.859375 L 0.640625 -0.859375 Z M 0.640625 -0.71875 "/></g></g></g><g fill="#000000" fill-opacity="1"><g transform="translate(22.967307, 22.859999)"><g/></g></g><g fill="#000000" fill-opacity="1"><g transform="translate(24.173842, 22.859999)"><g><path d="M 0.234375 0 L 0.09375 0 L 0.09375 -0.859375 L 0.390625 -0.859375 C 0.492188 -0.859375 0.578125 -0.832031 0.640625 -0.78125 C 0.703125 -0.738281 0.734375 -0.675781 0.734375 -0.59375 C 0.734375 -0.507812 0.703125 -0.441406 0.640625 -0.390625 C 0.578125 -0.335938 0.484375 -0.3125 0.359375 -0.3125 L 0.234375 -0.3125 Z M 0.375 -0.734375 L 0.234375 -0.734375 L 0.234375 -0.453125 L 0.359375 -0.453125 C 0.429688 -0.453125 0.484375 -0.460938 0.515625 -0.484375 C 0.554688 -0.503906 0.578125 -0.539062 0.578125 -0.59375 C 0.578125 -0.632812 0.5625 -0.664062 0.53125 -0.6875 C 0.5 -0.71875 0.445312 -0.734375 0.375 -0.734375 Z M 0.375 -0.734375 "/></g></g></g><g fill="#000000" fill-opacity="1"><g transform="translate(25.837934, 22.859999)"><g><path d="M -0.015625 0 L 0.359375 -0.859375 L 0.484375 -0.859375 L 0.828125 0 L 0.671875 0 L 0.59375 -0.1875 L 0.21875 -0.1875 L 0.140625 0 Z M 0.28125 -0.328125 L 0.546875 -0.328125 L 0.421875 -0.65625 Z M 0.28125 -0.328125 "/></g></g></g><g fill="#000000" fill-opacity="1"><g transform="translate(27.578888, 22.859999)"><g><path d="M 0.09375 0 L 0.09375 -0.859375 L 0.34375 -0.859375 C 0.507812 -0.859375 0.632812 -0.820312 0.71875 -0.75 C 0.800781 -0.675781 0.84375 -0.570312 0.84375 -0.4375 C 0.84375 -0.34375 0.820312 -0.265625 0.78125 -0.203125 C 0.75 -0.140625 0.695312 -0.0859375 0.625 -0.046875 C 0.5625 -0.015625 0.484375 0 0.390625 0 Z M 0.25 -0.140625 L 0.375 -0.140625 C 0.476562 -0.140625 0.554688 -0.160156 0.609375 -0.203125 C 0.660156 -0.253906 0.6875 -0.328125 0.6875 -0.421875 C 0.6875 -0.523438 0.660156 -0.597656 0.609375 -0.640625 C 0.554688 -0.691406 0.472656 -0.71875 0.359375 -0.71875 L 0.25 -0.71875 Z M 0.25 -0.140625 "/></g></g></g></svg>